<?xml version="1.0" standalone="no"?><svg xmlns="http://www.w3.org/2000/svg" viewBox="0 0 1440 320"><path fill="#135d66" fill-opacity="1" d="M0,64L16,80C32,96,64,128,96,144C128,160,160,160,192,176C224,192,256,224,288,208C320,192,352,128,384,96C416,64,448,64,480,58.7C512,53,544,43,576,42.7C608,43,640,53,672,48C704,43,736,21,768,42.7C800,64,832,128,864,176C896,224,928,256,960,240C992,224,1024,160,1056,165.3C1088,171,1120,245,1152,256C1184,267,1216,213,1248,197.3C1280,181,1312,203,1344,181.3C1376,160,1408,96,1424,64L1440,32L1440,320L1424,320C1408,320,1376,320,1344,320C1312,320,1280,320,1248,320C1216,320,1184,320,1152,320C1120,320,1088,320,1056,320C1024,320,992,320,960,320C928,320,896,320,864,320C832,320,800,320,768,320C736,320,704,320,672,320C640,320,608,320,576,320C544,320,512,320,480,320C448,320,416,320,384,320C352,320,320,320,288,320C256,320,224,320,192,320C160,320,128,320,96,320C64,320,32,320,16,320L0,320Z"></path></svg>